<mxfile host="app.diagrams.net" modified="2020-12-20T07:09:44.764Z" agent="5.0 (Windows NT 10.0; Win64; x64) AppleWebKit/537.36 (KHTML, like Gecko) Chrome/86.0.4240.111 Safari/537.36" etag="UUNOD3VJM3epNaomK8Fn" version="14.1.1" type="github">
  <diagram id="C5RBs43oDa-KdzZeNtuy" name="Page-1">
    <mxGraphModel dx="1422" dy="762" grid="1" gridSize="10" guides="1" tooltips="1" connect="1" arrows="1" fold="1" page="1" pageScale="1" pageWidth="827" pageHeight="1169" math="0" shadow="0">
      <root>
        <mxCell id="WIyWlLk6GJQsqaUBKTNV-0" />
        <mxCell id="WIyWlLk6GJQsqaUBKTNV-1" parent="WIyWlLk6GJQsqaUBKTNV-0" />
        <mxCell id="WIyWlLk6GJQsqaUBKTNV-2" value="" style="rounded=0;html=1;jettySize=auto;orthogonalLoop=1;fontSize=11;endArrow=block;endFill=0;endSize=8;strokeWidth=1;shadow=0;labelBackgroundColor=none;edgeStyle=orthogonalEdgeStyle;" parent="WIyWlLk6GJQsqaUBKTNV-1" source="WIyWlLk6GJQsqaUBKTNV-3" edge="1">
          <mxGeometry relative="1" as="geometry">
            <mxPoint x="275" y="190" as="targetPoint" />
          </mxGeometry>
        </mxCell>
        <mxCell id="WIyWlLk6GJQsqaUBKTNV-3" value="1번문제: 1에서 100까지 수 중 3의 배수의 합을 구하시오." style="rounded=1;whiteSpace=wrap;html=1;fontSize=12;glass=0;strokeWidth=1;shadow=0;" parent="WIyWlLk6GJQsqaUBKTNV-1" vertex="1">
          <mxGeometry x="160" y="80" width="440" height="40" as="geometry" />
        </mxCell>
        <mxCell id="WIyWlLk6GJQsqaUBKTNV-4" value="Yes" style="rounded=0;html=1;jettySize=auto;orthogonalLoop=1;fontSize=11;endArrow=block;endFill=0;endSize=8;strokeWidth=1;shadow=0;labelBackgroundColor=none;edgeStyle=orthogonalEdgeStyle;" parent="WIyWlLk6GJQsqaUBKTNV-1" target="WIyWlLk6GJQsqaUBKTNV-10" edge="1">
          <mxGeometry y="20" relative="1" as="geometry">
            <mxPoint as="offset" />
            <mxPoint x="275" y="320" as="sourcePoint" />
          </mxGeometry>
        </mxCell>
        <mxCell id="WIyWlLk6GJQsqaUBKTNV-8" value="No" style="rounded=0;html=1;jettySize=auto;orthogonalLoop=1;fontSize=11;endArrow=block;endFill=0;endSize=8;strokeWidth=1;shadow=0;labelBackgroundColor=none;edgeStyle=orthogonalEdgeStyle;" parent="WIyWlLk6GJQsqaUBKTNV-1" source="WIyWlLk6GJQsqaUBKTNV-10" target="WIyWlLk6GJQsqaUBKTNV-11" edge="1">
          <mxGeometry x="0.3333" y="20" relative="1" as="geometry">
            <mxPoint as="offset" />
          </mxGeometry>
        </mxCell>
        <mxCell id="WIyWlLk6GJQsqaUBKTNV-10" value="if(i%3 ==0)&lt;br&gt;&lt;br&gt;sum+=i;" style="rhombus;whiteSpace=wrap;html=1;shadow=0;fontFamily=Helvetica;fontSize=12;align=center;strokeWidth=1;spacing=6;spacingTop=-4;" parent="WIyWlLk6GJQsqaUBKTNV-1" vertex="1">
          <mxGeometry x="140" y="360" width="290" height="150" as="geometry" />
        </mxCell>
        <mxCell id="WIyWlLk6GJQsqaUBKTNV-11" value="&lt;span style=&quot;font-family: , &amp;#34;dotum&amp;#34; , &amp;#34;helvetica&amp;#34; , &amp;#34;apple sd gothic neo&amp;#34; , sans-serif&quot;&gt;Console.WriteLine(&quot;1부터 100까지의 수중 3의 배수의 합은&quot; + $&quot;{sum})이다.&quot;);&lt;/span&gt;" style="rounded=1;whiteSpace=wrap;html=1;fontSize=12;glass=0;strokeWidth=1;shadow=0;" parent="WIyWlLk6GJQsqaUBKTNV-1" vertex="1">
          <mxGeometry x="320" y="565" width="290" height="135" as="geometry" />
        </mxCell>
        <mxCell id="NshCrMPB0RAvrd8qq1Ft-0" value="&lt;span style=&quot;font-family: , &amp;#34;dotum&amp;#34; , &amp;#34;helvetica&amp;#34; , &amp;#34;apple sd gothic neo&amp;#34; , sans-serif&quot;&gt;&lt;br&gt;&lt;br&gt;int sum = 0;&lt;/span&gt;&lt;br style=&quot;font-family: , &amp;#34;dotum&amp;#34; , &amp;#34;helvetica&amp;#34; , &amp;#34;apple sd gothic neo&amp;#34; , sans-serif&quot;&gt;&lt;div&gt;&lt;span style=&quot;font-family: , &amp;#34;dotum&amp;#34; , &amp;#34;helvetica&amp;#34; , &amp;#34;apple sd gothic neo&amp;#34; , sans-serif&quot;&gt;&amp;nbsp; &amp;nbsp; &amp;nbsp; &amp;nbsp; &amp;nbsp; &amp;nbsp;&amp;nbsp;&lt;/span&gt;&lt;/div&gt;&lt;div&gt;&lt;span style=&quot;font-family: , &amp;#34;dotum&amp;#34; , &amp;#34;helvetica&amp;#34; , &amp;#34;apple sd gothic neo&amp;#34; , sans-serif&quot;&gt;for (int i = 0; i &amp;lt; 100; i++)&lt;/span&gt;&lt;/div&gt;&lt;span style=&quot;font-family: , &amp;#34;dotum&amp;#34; , &amp;#34;helvetica&amp;#34; , &amp;#34;apple sd gothic neo&amp;#34; , sans-serif&quot;&gt;&amp;nbsp;&amp;nbsp;&amp;nbsp;&amp;nbsp;&amp;nbsp;&amp;nbsp;&amp;nbsp;&amp;nbsp;&amp;nbsp;&amp;nbsp;&amp;nbsp; &lt;br&gt;&lt;/span&gt;&lt;span style=&quot;font-family: , &amp;#34;dotum&amp;#34; , &amp;#34;helvetica&amp;#34; , &amp;#34;apple sd gothic neo&amp;#34; , sans-serif&quot;&gt;{&amp;nbsp; &amp;nbsp; &amp;nbsp;&lt;/span&gt;&lt;br style=&quot;font-family: , &amp;#34;dotum&amp;#34; , &amp;#34;helvetica&amp;#34; , &amp;#34;apple sd gothic neo&amp;#34; , sans-serif&quot;&gt;&lt;span style=&quot;font-family: , &amp;#34;dotum&amp;#34; , &amp;#34;helvetica&amp;#34; , &amp;#34;apple sd gothic neo&amp;#34; , sans-serif&quot;&gt;&amp;nbsp; &amp;nbsp; &amp;nbsp;}&lt;/span&gt;" style="rhombus;whiteSpace=wrap;html=1;shadow=0;fontFamily=Helvetica;fontSize=12;align=center;strokeWidth=1;spacing=6;spacingTop=-4;" vertex="1" parent="WIyWlLk6GJQsqaUBKTNV-1">
          <mxGeometry x="130" y="180" width="290" height="130" as="geometry" />
        </mxCell>
      </root>
    </mxGraphModel>
  </diagram>
</mxfile>
